<svg id="Layer_1" data-name="Layer 1" xmlns="http://www.w3.org/2000/svg" viewBox="0 0 133 20"><defs><style>.cls-1{fill:#011830;}.cls-2{fill:#c4c4c4;}</style></defs><title>logo</title><path class="cls-1" d="M253.68,398.38h-9.22a3,3,0,0,0,.93,1.86,2.89,2.89,0,0,0,1.91.6,3.21,3.21,0,0,0,1.64-.38,1.94,1.94,0,0,0,.85-1.11l3.73,1.19a4.55,4.55,0,0,1-2.21,2.63,8.12,8.12,0,0,1-4,.91,7.41,7.41,0,0,1-5.42-1.84,6.92,6.92,0,0,1-1.88-5.19,6.4,6.4,0,0,1,7.06-7,6.65,6.65,0,0,1,5,1.8,7,7,0,0,1,1.74,5A7.16,7.16,0,0,1,253.68,398.38Zm-9.25-2.49h5.09c-.22-1.77-1.05-2.65-2.49-2.65S244.7,394.12,244.43,395.89Z" transform="translate(-240 -384.08)"/><path class="cls-1" d="M270.09,384.56v19.25H266l-.16-2.57a4.81,4.81,0,0,1-1.74,2.08,4.72,4.72,0,0,1-2.67.76,4.93,4.93,0,0,1-4.09-1.84,8,8,0,0,1-1.48-5.14,8.16,8.16,0,0,1,1.49-5.21,5,5,0,0,1,4.11-1.87,4.38,4.38,0,0,1,2.46.68,4.67,4.67,0,0,1,1.62,1.86v-8Zm-5.34,15.34a3.85,3.85,0,0,0,.74-2.31v-1.08a3.88,3.88,0,0,0-.74-2.3,2.17,2.17,0,0,0-1.77-.81,2.21,2.21,0,0,0-1.88.89,6.1,6.1,0,0,0,0,5.52,2.21,2.21,0,0,0,1.88.89A2.19,2.19,0,0,0,264.75,399.9Z" transform="translate(-240 -384.08)"/><path class="cls-1" d="M272.36,401.7l2.38-2.59a4.29,4.29,0,0,0,4,1.91,3.52,3.52,0,0,0,1.48-.25c.36-.17.55-.4.55-.69s-.19-.48-.56-.66a7.93,7.93,0,0,0-1.9-.56,10.18,10.18,0,0,1-4.32-1.62,3.33,3.33,0,0,1-1.28-2.73,3.71,3.71,0,0,1,.73-2.19,5.11,5.11,0,0,1,2.2-1.66,8.92,8.92,0,0,1,3.58-.64,9.55,9.55,0,0,1,3.8.64,5.66,5.66,0,0,1,2.39,1.9L283,394.89a4.09,4.09,0,0,0-1.54-1.38,4.86,4.86,0,0,0-2.14-.43,3.26,3.26,0,0,0-1.51.29.86.86,0,0,0-.55.73c0,.27.19.5.56.69a8,8,0,0,0,1.93.56,10.07,10.07,0,0,1,4.29,1.52,3.33,3.33,0,0,1,1.31,2.78,3.82,3.82,0,0,1-1.65,3.2,7.93,7.93,0,0,1-4.79,1.23Q274.3,404.08,272.36,401.7Z" transform="translate(-240 -384.08)"/><path class="cls-1" d="M299.43,391.87a8.08,8.08,0,0,1,0,10.36,8.39,8.39,0,0,1-10.51,0,8.08,8.08,0,0,1,0-10.36,8.39,8.39,0,0,1,10.51,0Zm-7.18,2.32a6.93,6.93,0,0,0,0,5.73,2.2,2.2,0,0,0,1.92.89,2.18,2.18,0,0,0,1.92-.89,6.83,6.83,0,0,0,0-5.73,2.16,2.16,0,0,0-1.92-.9A2.19,2.19,0,0,0,292.25,394.19Z" transform="translate(-240 -384.08)"/><path class="cls-1" d="M316.23,391.27a4.72,4.72,0,0,1,1.27,3.54v9h-4.59v-7.73a3,3,0,0,0-.5-2,1.78,1.78,0,0,0-1.42-.58,2.21,2.21,0,0,0-1.76.77,3.5,3.5,0,0,0-.68,2.36v7.14H304V390.29h4.11l.13,2.6a4.72,4.72,0,0,1,1.84-2.15,5.27,5.27,0,0,1,2.79-.72A4.66,4.66,0,0,1,316.23,391.27Z" transform="translate(-240 -384.08)"/><path class="cls-2" d="M329.45,390.29,329,392.4a3.61,3.61,0,0,0-1.7-.35,3.24,3.24,0,0,0-1.69.5,3.79,3.79,0,0,0-1.36,1.51,5.28,5.28,0,0,0-.52,2.45v7.3h-2.16V390.29h1.75l.3,2.22A4.3,4.3,0,0,1,328,390,3.27,3.27,0,0,1,329.45,390.29Z" transform="translate(-240 -384.08)"/><path class="cls-2" d="M332.52,387.25a1.76,1.76,0,1,1,1.18.45A1.58,1.58,0,0,1,332.52,387.25Zm2.26,16.56h-2.17V390.29h2.17Z" transform="translate(-240 -384.08)"/><path class="cls-2" d="M344.83,397.13,342,400v3.81H339.8V384.08H342v13.21l7-7h2.7l-5.27,5.27,5.6,8.25h-2.63Z" transform="translate(-240 -384.08)"/><path class="cls-2" d="M367,402.11l-.14,1.7a4.75,4.75,0,0,1-1.62.27,2.66,2.66,0,0,1-1.66-.46,2.25,2.25,0,0,1-.77-1.54,4.11,4.11,0,0,1-1.83,1.47,6.24,6.24,0,0,1-2.53.53,5.49,5.49,0,0,1-3.29-.93,3.1,3.1,0,0,1-1.3-2.69,3.38,3.38,0,0,1,1.35-2.67,8.32,8.32,0,0,1,3.92-1.55l3.6-.6v-.75a2.86,2.86,0,0,0-.84-2.16,3.19,3.19,0,0,0-2.33-.82,4.19,4.19,0,0,0-2.34.65,4.28,4.28,0,0,0-1.52,1.92l-1.6-1.16a4.56,4.56,0,0,1,2-2.41,6.55,6.55,0,0,1,3.44-.89,6,6,0,0,1,3.87,1.16,4.15,4.15,0,0,1,1.46,3.44v6.65a1,1,0,0,0,.24.73,1.1,1.1,0,0,0,.79.24A4.43,4.43,0,0,0,367,402.11Zm-5.5-.73a2.45,2.45,0,0,0,1.23-2.11V397.4l-3,.57a7.24,7.24,0,0,0-2.7.93,1.83,1.83,0,0,0-.9,1.56,1.46,1.46,0,0,0,.65,1.28,3.15,3.15,0,0,0,1.81.45A5.22,5.22,0,0,0,361.53,401.38Z" transform="translate(-240 -384.08)"/><path class="cls-1" d="M372.51,401.05a1.71,1.71,0,0,1,.49,1.27,1.68,1.68,0,0,1-1.76,1.76,1.66,1.66,0,0,1-1.75-1.76,1.65,1.65,0,0,1,1.75-1.75A1.71,1.71,0,0,1,372.51,401.05Z" transform="translate(-240 -384.08)"/></svg>